<mxfile host="app.diagrams.net" modified="2024-07-23T09:49:11.812Z" agent="Mozilla/5.0 (Windows NT 10.0; Win64; x64; rv:128.0) Gecko/20100101 Firefox/128.0" etag="OyNVEWUb1jD9JLfJpnkR" version="24.7.3" type="github">
  <diagram id="C5RBs43oDa-KdzZeNtuy" name="Page-1">
    <mxGraphModel dx="1290" dy="578" grid="1" gridSize="10" guides="1" tooltips="1" connect="1" arrows="1" fold="1" page="1" pageScale="1" pageWidth="827" pageHeight="1169" math="0" shadow="0">
      <root>
        <mxCell id="WIyWlLk6GJQsqaUBKTNV-0" />
        <mxCell id="WIyWlLk6GJQsqaUBKTNV-1" parent="WIyWlLk6GJQsqaUBKTNV-0" />
        <mxCell id="sT2ias-2TCQyi3q_QARU-9" value="" style="edgeStyle=orthogonalEdgeStyle;rounded=0;orthogonalLoop=1;jettySize=auto;html=1;" edge="1" parent="WIyWlLk6GJQsqaUBKTNV-1" source="sT2ias-2TCQyi3q_QARU-3" target="sT2ias-2TCQyi3q_QARU-8">
          <mxGeometry relative="1" as="geometry" />
        </mxCell>
        <mxCell id="sT2ias-2TCQyi3q_QARU-3" value="start" style="strokeWidth=2;html=1;shape=mxgraph.flowchart.terminator;whiteSpace=wrap;" vertex="1" parent="WIyWlLk6GJQsqaUBKTNV-1">
          <mxGeometry x="85" y="10" width="100" height="60" as="geometry" />
        </mxCell>
        <mxCell id="sT2ias-2TCQyi3q_QARU-4" value="end" style="strokeWidth=2;html=1;shape=mxgraph.flowchart.terminator;whiteSpace=wrap;" vertex="1" parent="WIyWlLk6GJQsqaUBKTNV-1">
          <mxGeometry x="85" y="680" width="100" height="60" as="geometry" />
        </mxCell>
        <mxCell id="sT2ias-2TCQyi3q_QARU-11" value="" style="edgeStyle=orthogonalEdgeStyle;rounded=0;orthogonalLoop=1;jettySize=auto;html=1;" edge="1" parent="WIyWlLk6GJQsqaUBKTNV-1" source="sT2ias-2TCQyi3q_QARU-8" target="sT2ias-2TCQyi3q_QARU-10">
          <mxGeometry relative="1" as="geometry" />
        </mxCell>
        <mxCell id="sT2ias-2TCQyi3q_QARU-8" value="&lt;div&gt;get maximum &lt;br&gt;&lt;/div&gt;&lt;div&gt;width of image&lt;/div&gt;&lt;div&gt;relative to window&lt;br&gt;&lt;/div&gt;" style="shape=parallelogram;perimeter=parallelogramPerimeter;whiteSpace=wrap;html=1;fixedSize=1;strokeWidth=2;" vertex="1" parent="WIyWlLk6GJQsqaUBKTNV-1">
          <mxGeometry x="75" y="110" width="120" height="60" as="geometry" />
        </mxCell>
        <mxCell id="sT2ias-2TCQyi3q_QARU-16" value="" style="edgeStyle=orthogonalEdgeStyle;rounded=0;orthogonalLoop=1;jettySize=auto;html=1;" edge="1" parent="WIyWlLk6GJQsqaUBKTNV-1" source="sT2ias-2TCQyi3q_QARU-10" target="sT2ias-2TCQyi3q_QARU-15">
          <mxGeometry relative="1" as="geometry" />
        </mxCell>
        <mxCell id="sT2ias-2TCQyi3q_QARU-10" value="&lt;div&gt;get maximum &lt;br&gt;&lt;/div&gt;&lt;div&gt;height of image&lt;/div&gt;&lt;div&gt;relative to window&lt;br&gt;&lt;/div&gt;" style="shape=parallelogram;perimeter=parallelogramPerimeter;whiteSpace=wrap;html=1;fixedSize=1;strokeWidth=2;" vertex="1" parent="WIyWlLk6GJQsqaUBKTNV-1">
          <mxGeometry x="75" y="200" width="120" height="60" as="geometry" />
        </mxCell>
        <mxCell id="sT2ias-2TCQyi3q_QARU-18" value="" style="edgeStyle=orthogonalEdgeStyle;rounded=0;orthogonalLoop=1;jettySize=auto;html=1;" edge="1" parent="WIyWlLk6GJQsqaUBKTNV-1" source="sT2ias-2TCQyi3q_QARU-15" target="sT2ias-2TCQyi3q_QARU-17">
          <mxGeometry relative="1" as="geometry" />
        </mxCell>
        <mxCell id="sT2ias-2TCQyi3q_QARU-15" value="set imgSize to the smaller of the width/hieght values" style="whiteSpace=wrap;html=1;strokeWidth=2;" vertex="1" parent="WIyWlLk6GJQsqaUBKTNV-1">
          <mxGeometry x="75" y="300" width="120" height="60" as="geometry" />
        </mxCell>
        <mxCell id="sT2ias-2TCQyi3q_QARU-20" value="" style="edgeStyle=orthogonalEdgeStyle;rounded=0;orthogonalLoop=1;jettySize=auto;html=1;" edge="1" parent="WIyWlLk6GJQsqaUBKTNV-1" source="sT2ias-2TCQyi3q_QARU-17" target="sT2ias-2TCQyi3q_QARU-19">
          <mxGeometry relative="1" as="geometry" />
        </mxCell>
        <mxCell id="sT2ias-2TCQyi3q_QARU-17" value="get image from function get_image" style="shape=process;whiteSpace=wrap;html=1;backgroundOutline=1;strokeWidth=2;" vertex="1" parent="WIyWlLk6GJQsqaUBKTNV-1">
          <mxGeometry x="75" y="400" width="120" height="60" as="geometry" />
        </mxCell>
        <mxCell id="sT2ias-2TCQyi3q_QARU-22" value="" style="edgeStyle=orthogonalEdgeStyle;rounded=0;orthogonalLoop=1;jettySize=auto;html=1;" edge="1" parent="WIyWlLk6GJQsqaUBKTNV-1" source="sT2ias-2TCQyi3q_QARU-19" target="sT2ias-2TCQyi3q_QARU-21">
          <mxGeometry relative="1" as="geometry" />
        </mxCell>
        <mxCell id="sT2ias-2TCQyi3q_QARU-19" value="&lt;div&gt;configure itemImage to the image and&lt;/div&gt;&lt;div&gt;set size to imgSize (as a square)&lt;br&gt;&lt;/div&gt;" style="shape=parallelogram;perimeter=parallelogramPerimeter;whiteSpace=wrap;html=1;fixedSize=1;strokeWidth=2;" vertex="1" parent="WIyWlLk6GJQsqaUBKTNV-1">
          <mxGeometry x="50" y="490" width="170" height="70" as="geometry" />
        </mxCell>
        <mxCell id="sT2ias-2TCQyi3q_QARU-21" value="&lt;div&gt;configure imageLabel&amp;nbsp;&lt;/div&gt;&lt;div&gt;to the itemImage&lt;/div&gt;" style="shape=parallelogram;perimeter=parallelogramPerimeter;whiteSpace=wrap;html=1;fixedSize=1;strokeWidth=2;" vertex="1" parent="WIyWlLk6GJQsqaUBKTNV-1">
          <mxGeometry x="57.5" y="585" width="155" height="60" as="geometry" />
        </mxCell>
        <mxCell id="sT2ias-2TCQyi3q_QARU-23" style="edgeStyle=orthogonalEdgeStyle;rounded=0;orthogonalLoop=1;jettySize=auto;html=1;entryX=0.5;entryY=0;entryDx=0;entryDy=0;entryPerimeter=0;" edge="1" parent="WIyWlLk6GJQsqaUBKTNV-1" source="sT2ias-2TCQyi3q_QARU-21" target="sT2ias-2TCQyi3q_QARU-4">
          <mxGeometry relative="1" as="geometry" />
        </mxCell>
      </root>
    </mxGraphModel>
  </diagram>
</mxfile>
